<?xml version="1.0" encoding="utf-8"?>
<!-- Generator: Adobe Illustrator 24.0.0, SVG Export Plug-In . SVG Version: 6.00 Build 0)  -->
<svg version="1.1" id="Warstwa_1" xmlns="http://www.w3.org/2000/svg" xmlns:xlink="http://www.w3.org/1999/xlink" x="0px" y="0px"
	 viewBox="0 0 620 120" style="enable-background:new 0 0 620 120;" xml:space="preserve">
<path d="M41.6,102.3h-26l-6.2,16.4H1.3l23-58.4h9.1l23,58.4h-8.4L41.6,102.3z M39,95.6L28.6,68.5h-0.2L18.1,95.6H39z"/>
<path d="M86.5,35.5H71v24.6h-7.7V1.7h23.8c10.8,0,18.8,6.2,18.8,16.7c0,7.8-4.7,13.1-11.7,15.4L107,60.1h-8.7L86.5,35.5z M71,28.8
	h16c6.2,0,11.2-3.3,11.2-10.2c0-6.9-4.8-10.3-11.1-10.3H71V28.8z"/>
<path d="M141.1,60.1V8.4h-20.2V1.7H169v6.7h-20.2v51.7H141.1z"/>
<path d="M222.1,60.2h19.6c19.7,0,29.5,13.2,29.5,29.2c0,17.5-11.3,29.2-28.8,29.2h-20.3V60.2z M242,111.9c12.7,0,21.4-7.4,21.4-22.4
	c0-15.8-9.7-22.6-22.1-22.6h-11.5v45.1H242z"/>
<path d="M288.9,118.6V60.1h7.7v58.4H288.9z"/>
<path d="M365.1,60.2l-21.5,58.4h-8.4l-21.6-58.4h8.4l17.7,48.6h0.2l17.3-48.6H365.1z"/>
<path d="M382.2,118.6V60.2h7.7v58.4H382.2z"/>
<path d="M409,110.3l5.7-4.9c3.8,4.8,9.7,7.5,16.2,7.5c9.7,0,13.7-4,13.7-9.8c0-6.2-5.5-8.1-14.5-10.3c-9.7-2.4-19.2-5.3-19.2-16.5
	c0-10.1,7.8-16.8,20.6-16.8c8.2,0,15.2,3,20.1,9.1l-5.8,4.8c-3-4.3-7.7-7.2-14.4-7.2c-8.4,0-12.7,4-12.7,9.4c0,6.2,5.6,7.7,14.4,10
	c10.1,2.7,19.3,5.7,19.3,16.8c0,10.4-7.8,17.2-21.5,17.2C422,119.5,414.2,116.5,409,110.3z"/>
<path d="M472.3,118.6V60.2h7.7v58.4H472.3z"/>
<path d="M525.6,59.3c17.5,0,27.3,13.2,27.3,30c0,16.4-9.5,30.1-27.2,30.1c-17.5,0-27.3-13.2-27.3-30C498.3,73,507.8,59.3,525.6,59.3
	z M525.7,112.8c13.1,0,19.4-11,19.4-23.4c0-12.2-6.1-23.4-19.5-23.4c-13.1,0-19.4,11-19.4,23.4C506.2,101.6,512.3,112.8,525.7,112.8
	z"/>
<path d="M618.7,60.2v58.4H612l-33.2-46.4h-0.2v46.4h-7.5V60.2h7.8l32,45h0.2v-45H618.7z"/>
<path d="M399.8,19.1h-10.7l-2.6,6.7h-3.3l9.5-24.1h3.7l9.5,24.1h-3.4L399.8,19.1z M398.7,16.3l-4.3-11.2h-0.1l-4.3,11.2H398.7z"/>
<path d="M417.6,1.7h8.1c8.1,0,12.1,5.4,12.1,12c0,7.2-4.6,12-11.9,12h-8.4V1.7z M425.8,23c5.2,0,8.8-3,8.8-9.2c0-6.5-4-9.3-9.1-9.3
	h-4.7V23H425.8z"/>
<path d="M469.3,1.7l-8.9,24.1H457l-8.9-24.1h3.4l7.3,20h0.1l7.1-20H469.3z"/>
<path d="M483,25.8V1.7h3.2v24.1H483z"/>
<path d="M501.4,22.3l2.4-2c1.6,2,4,3.1,6.7,3.1c4,0,5.6-1.6,5.6-4c0-2.6-2.3-3.3-6-4.3c-4-1-7.9-2.2-7.9-6.8c0-4.2,3.2-6.9,8.5-6.9
	c3.4,0,6.3,1.2,8.3,3.7l-2.4,2c-1.3-1.8-3.2-3-5.9-3c-3.5,0-5.2,1.7-5.2,3.9c0,2.6,2.3,3.2,5.9,4.1c4.2,1.1,8,2.4,8,6.9
	c0,4.3-3.2,7.1-8.8,7.1C506.8,26.1,503.6,24.9,501.4,22.3z"/>
<path d="M543.5,1.4c7.2,0,11.3,5.4,11.3,12.4c0,6.8-3.9,12.4-11.2,12.4c-7.2,0-11.3-5.4-11.3-12.4C532.3,7,536.2,1.4,543.5,1.4z
	 M543.6,23.4c5.4,0,8-4.5,8-9.6c0-5-2.5-9.6-8-9.6c-5.4,0-8,4.5-8,9.7C535.5,18.8,538,23.4,543.6,23.4z"/>
<path d="M578.5,15.7h-6.4v10.1H569V1.7h9.8c4.5,0,7.7,2.5,7.7,6.9c0,3.2-1.9,5.4-4.8,6.3l5.3,10.8h-3.6L578.5,15.7z M572.1,12.9h6.6
	c2.6,0,4.6-1.4,4.6-4.2c0-2.9-2-4.2-4.6-4.2h-6.6V12.9z"/>
<path d="M618.8,1.7l-9,14.6v9.5h-3.2v-9.4l-9-14.6h3.7l6.9,11.6h0.1l7-11.6H618.8z"/>
<polygon points="176.6,118.6 222.3,1.7 214.6,1.7 169,118.6 "/>
</svg>
