<?xml version="1.0" encoding="utf-8"?>
<!-- Generator: Adobe Illustrator 24.0.0, SVG Export Plug-In . SVG Version: 6.00 Build 0)  -->
<svg version="1.1" id="Warstwa_1" xmlns="http://www.w3.org/2000/svg" xmlns:xlink="http://www.w3.org/1999/xlink" x="0px" y="0px"
	 viewBox="0 0 400 120" style="enable-background:new 0 0 400 120;" xml:space="preserve">
<style type="text/css">
	.st0{fill:#010202;}
</style>
<path class="st0" d="M2,60.2h19.6c19.7,0,29.5,13.2,29.5,29.2c0,17.5-11.3,29.2-28.8,29.2H2V60.2z M21.9,111.9
	c12.7,0,21.4-7.4,21.4-22.4c0-15.8-9.7-22.6-22.1-22.6H9.7v45.1H21.9z"/>
<path class="st0" d="M68.7,118.6V60.1h7.7v58.4H68.7z"/>
<path class="st0" d="M145,60.2l-21.5,58.4h-8.4L93.5,60.2h8.4l17.7,48.6h0.2L137,60.2H145z"/>
<path class="st0" d="M162.1,118.6V60.2h7.7v58.4H162.1z"/>
<path class="st0" d="M188.8,110.3l5.7-4.9c3.8,4.8,9.7,7.5,16.2,7.5c9.7,0,13.7-4,13.7-9.8c0-6.2-5.5-8.1-14.5-10.3
	c-9.7-2.4-19.2-5.3-19.2-16.5c0-10.1,7.8-16.8,20.6-16.8c8.2,0,15.2,3,20.1,9.1l-5.8,4.8c-3-4.3-7.7-7.2-14.4-7.2
	c-8.4,0-12.7,4-12.7,9.4c0,6.2,5.6,7.7,14.4,10c10.1,2.7,19.3,5.7,19.3,16.8c0,10.4-7.8,17.2-21.5,17.2
	C201.9,119.5,194.1,116.5,188.8,110.3z"/>
<path class="st0" d="M252.2,118.6V60.2h7.7v58.4H252.2z"/>
<path class="st0" d="M305.5,59.3c17.5,0,27.3,13.2,27.3,30c0,16.4-9.5,30.1-27.2,30.1c-17.5,0-27.3-13.2-27.3-30
	C278.2,73,287.7,59.3,305.5,59.3z M305.5,112.8c13.1,0,19.4-11,19.4-23.4c0-12.2-6.1-23.4-19.5-23.4c-13.1,0-19.4,11-19.4,23.4
	C286.1,101.6,292.1,112.8,305.5,112.8z"/>
<path class="st0" d="M398.6,60.2v58.4h-6.7l-33.2-46.4h-0.2v46.4h-7.5V60.2h7.8l32,45h0.2v-45H398.6z"/>
<path class="st0" d="M179.7,19.1H169l-2.6,6.7h-3.3l9.5-24.1h3.7l9.5,24.1h-3.4L179.7,19.1z M178.6,16.3l-4.3-11.2h-0.1L170,16.3
	H178.6z"/>
<path class="st0" d="M197.5,1.7h8.1c8.1,0,12.1,5.4,12.1,12c0,7.2-4.6,12-11.9,12h-8.4V1.7z M205.7,23c5.2,0,8.8-3,8.8-9.2
	c0-6.5-4-9.3-9.1-9.3h-4.7V23H205.7z"/>
<path class="st0" d="M249.2,1.7l-8.9,24.1h-3.4l-8.9-24.1h3.4l7.3,20h0.1l7.1-20H249.2z"/>
<path class="st0" d="M262.9,25.8V1.7h3.2v24.1H262.9z"/>
<path class="st0" d="M281.3,22.3l2.4-2c1.6,2,4,3.1,6.7,3.1c4,0,5.6-1.6,5.6-4c0-2.6-2.3-3.3-6-4.3c-4-1-7.9-2.2-7.9-6.8
	c0-4.2,3.2-6.9,8.5-6.9c3.4,0,6.3,1.2,8.3,3.7l-2.4,2c-1.3-1.8-3.2-3-5.9-3c-3.5,0-5.2,1.7-5.2,3.9c0,2.6,2.3,3.2,5.9,4.1
	c4.2,1.1,8,2.4,8,6.9c0,4.3-3.2,7.1-8.8,7.1C286.7,26.1,283.5,24.9,281.3,22.3z"/>
<path class="st0" d="M323.4,1.4c7.2,0,11.3,5.4,11.3,12.4c0,6.8-3.9,12.4-11.2,12.4c-7.2,0-11.3-5.4-11.3-12.4
	C312.2,7,316.1,1.4,323.4,1.4z M323.4,23.4c5.4,0,8-4.5,8-9.6c0-5-2.5-9.6-8-9.6c-5.4,0-8,4.5-8,9.7
	C315.4,18.8,317.9,23.4,323.4,23.4z"/>
<path class="st0" d="M358.4,15.7H352v10.1h-3.2V1.7h9.8c4.5,0,7.7,2.5,7.7,6.9c0,3.2-1.9,5.4-4.8,6.3l5.3,10.8h-3.6L358.4,15.7z
	 M352,12.9h6.6c2.6,0,4.6-1.4,4.6-4.2c0-2.9-2-4.2-4.6-4.2H352V12.9z"/>
<path class="st0" d="M398.7,1.7l-9,14.6v9.5h-3.2v-9.4l-9-14.6h3.7l6.9,11.6h0.1l7-11.6H398.7z"/>
</svg>
