<?xml version="1.0" encoding="utf-8"?>
<!-- Generator: Adobe Illustrator 24.0.0, SVG Export Plug-In . SVG Version: 6.00 Build 0)  -->
<svg version="1.1" id="Warstwa_1" xmlns="http://www.w3.org/2000/svg" xmlns:xlink="http://www.w3.org/1999/xlink" x="0px" y="0px"
	 viewBox="0 0 224 120" style="enable-background:new 0 0 224 120;" xml:space="preserve">
<style type="text/css">
	.st0{fill:#010202;}
</style>
<path class="st0" d="M41.6,102.3h-26l-6.2,16.4H1.3l23-58.4h9.1l23,58.4h-8.4L41.6,102.3z M39,95.6L28.6,68.5h-0.2L18.1,95.6H39z"/>
<path class="st0" d="M86.5,35.5H71v24.6h-7.7V1.7h23.8c10.8,0,18.8,6.2,18.8,16.7c0,7.8-4.7,13.1-11.7,15.4L107,60.1h-8.7L86.5,35.5
	z M71,28.8h16c6.2,0,11.2-3.3,11.2-10.2c0-6.9-4.8-10.3-11.1-10.3H71V28.8z"/>
<path class="st0" d="M141.1,60.1V8.4h-20.2V1.7H169v6.7h-20.2v51.7H141.1z"/>
<polygon class="st0" points="176.6,118.6 222.3,1.7 214.6,1.7 169,118.6 "/>
</svg>
