<?xml version="1.0" encoding="utf-8"?>
<!-- Generator: Adobe Illustrator 24.0.0, SVG Export Plug-In . SVG Version: 6.00 Build 0)  -->
<svg version="1.1" id="Layer_1" xmlns="http://www.w3.org/2000/svg" xmlns:xlink="http://www.w3.org/1999/xlink" x="0px" y="0px"
	 viewBox="0 0 73.7 73.7" style="enable-background:new 0 0 73.7 73.7;" xml:space="preserve">
<path d="M72,66.2L50.4,44.5c3.3-4.4,5.2-10,5.2-16c0-15-12.1-27.1-27.1-27.1S1.4,13.5,1.4,28.5s12.1,27.1,27.1,27.1
	c6,0,11.5-1.9,16-5.2L66.2,72c0.8,0.8,1.9,1.2,2.9,1.2s2.1-0.4,2.9-1.2C73.7,70.4,73.7,67.9,72,66.2L72,66.2z M28.5,47.3
	c-10.4,0-18.8-8.3-18.8-18.8S18.1,9.8,28.5,9.8s18.8,8.3,18.8,18.8C47.3,38.9,38.9,47.3,28.5,47.3z"/>
</svg>
